<?xml version="1.0" standalone="no"?>
<!DOCTYPE svg PUBLIC "-//W3C//DTD SVG 20010904//EN"
 "http://www.w3.org/TR/2001/REC-SVG-20010904/DTD/svg10.dtd">
<svg version="1.0" xmlns="http://www.w3.org/2000/svg"
 width="128.000000pt" height="128.000000pt" viewBox="0 0 128.000000 128.000000"
 preserveAspectRatio="xMidYMid meet">

<g transform="translate(0.000000,128.000000) scale(0.100000,-0.100000)"
fill="#000000" stroke="none">
<path d="M0 640 l0 -640 640 0 640 0 0 640 0 640 -640 0 -640 0 0 -640z m690
188 l0 -92 33 32 c47 46 67 43 67 -11 0 -40 -5 -47 -75 -117 l-75 -74 -70 69
c-67 67 -70 71 -70 117 0 40 3 48 18 48 10 0 29 -11 42 -25 13 -14 26 -22 29
-19 3 3 4 36 3 74 -2 38 -1 74 3 80 3 5 26 10 51 10 l44 0 0 -92z m60 -263
c58 58 109 105 114 105 20 0 46 -35 46 -62 0 -20 -12 -40 -40 -68 -58 -57 -74
-50 -17 8 26 26 47 52 47 58 0 6 -9 19 -20 29 -21 19 -22 18 -123 -83 -56 -56
-107 -102 -112 -102 -5 0 -55 46 -111 101 -107 106 -127 115 -140 64 -6 -23 1
-35 47 -81 29 -30 48 -54 43 -54 -16 0 -114 106 -114 124 0 8 12 29 27 46 l26
32 111 -111 111 -111 105 105z m-30 -170 c-36 -36 -70 -65 -78 -65 -16 0 -125
101 -117 108 3 3 27 -15 53 -41 26 -26 54 -47 63 -47 8 0 41 27 74 60 32 33
61 57 64 54 3 -2 -24 -34 -59 -69z m-204 -195 c9 0 12 5 8 12 -4 7 -3 8 4 4 6
-4 9 -13 6 -21 -4 -8 -11 -12 -16 -9 -6 4 -14 0 -19 -7 -6 -10 -8 -5 -8 16 0
17 3 24 6 18 2 -7 11 -13 19 -13z m87 5 c-3 -9 -8 -14 -10 -11 -3 3 -2 9 2 15
9 16 15 13 8 -4z m77 -8 c11 -4 10 -6 -5 -7 l-20 -1 20 -9 c19 -8 19 -9 -2 -9
-19 -1 -23 4 -23 27 0 15 4 22 8 16 4 -6 14 -14 22 -17z m27 -14 c-3 -10 -5
-4 -5 12 0 17 2 24 5 18 2 -7 2 -21 0 -30z m49 25 c12 15 12 14 7 -6 -8 -33
-19 -35 -31 -4 -9 21 -9 23 0 10 11 -15 13 -15 24 0z m42 -17 c-6 -2 -4 -7 3
-12 11 -7 10 -9 -3 -9 -13 0 -18 8 -18 25 0 22 2 24 14 13 8 -8 10 -15 4 -17z
m-221 3 c-3 -3 -12 -4 -19 -1 -8 3 -5 6 6 6 11 1 17 -2 13 -5z m0 -20 c-3 -3
-12 -4 -19 -1 -8 3 -5 6 6 6 11 1 17 -2 13 -5z m56 -1 c-7 -2 -19 -2 -25 0 -7
3 -2 5 12 5 14 0 19 -2 13 -5z"/>
<path d="M608 804 l-3 -95 -35 35 c-19 20 -38 36 -42 36 -5 0 -8 -16 -8 -36 0
-30 9 -46 60 -97 l59 -62 66 65 c54 53 65 70 65 97 0 18 -4 33 -8 33 -4 0 -23
-16 -42 -35 -19 -19 -38 -35 -42 -35 -4 0 -8 43 -8 95 l0 95 -30 0 -29 0 -3
-96z"/>
</g>
</svg>
