<?xml version="1.0" standalone="no"?>
<!DOCTYPE svg PUBLIC "-//W3C//DTD SVG 20010904//EN"
 "http://www.w3.org/TR/2001/REC-SVG-20010904/DTD/svg10.dtd">
<svg version="1.0" xmlns="http://www.w3.org/2000/svg"
 width="128.000000pt" height="128.000000pt" viewBox="0 0 128.000000 128.000000"
 preserveAspectRatio="xMidYMid meet">

<g transform="translate(0.000000,128.000000) scale(0.100000,-0.100000)"
fill="#000000" stroke="none">
<path d="M0 640 l0 -640 640 0 640 0 0 640 0 640 -640 0 -640 0 0 -640z m500
209 c111 -26 106 -38 -6 -15 -43 9 -79 14 -82 12 -2 -3 12 -28 33 -56 20 -27
32 -50 27 -50 -5 0 -21 15 -34 33 -13 17 -37 49 -53 70 l-28 38 24 -5 c13 -3
67 -15 119 -27z m380 -85 c69 -15 129 -30 133 -34 5 -4 -22 -31 -58 -59 -39
-31 -62 -44 -56 -32 6 11 21 27 33 35 34 24 14 20 -167 -34 -92 -27 -169 -50
-171 -50 -2 0 -3 -38 -3 -85 0 -63 3 -84 12 -78 7 4 36 25 65 46 81 61 73 37
-10 -28 l-73 -57 -3 55 -3 56 -56 -24 c-31 -14 -58 -23 -60 -21 -2 2 1 24 8
50 12 49 34 66 23 19 -5 -25 0 -22 43 25 l48 53 164 49 c166 50 210 68 134 55
-29 -4 -43 -3 -43 4 0 6 15 11 33 11 75 1 55 17 -48 40 -58 13 -105 27 -105
32 0 5 8 7 18 4 9 -2 73 -17 142 -32z m-414 -51 c-7 -7 -26 7 -26 19 0 6 6 6
15 -2 9 -7 13 -15 11 -17z m309 7 c11 -18 -6 -50 -26 -50 -14 0 -19 7 -19 30
0 23 5 30 19 30 11 0 23 -5 26 -10z m-65 -39 c0 -10 -3 -11 -14 -2 -11 10 -15
8 -19 -6 -3 -10 -5 -3 -6 15 -1 30 0 31 19 20 11 -7 20 -19 20 -27z m-191 11
c11 -20 -7 -112 -22 -112 -5 0 -7 6 -4 14 15 39 18 87 7 101 -8 10 -9 15 -2
15 6 0 16 -8 21 -18z m66 9 c-19 -8 -19 -8 3 -15 29 -10 23 -30 -9 -33 -14 -1
-17 0 -6 3 21 7 23 24 2 24 -16 0 -20 12 -8 23 3 4 13 7 22 6 12 0 10 -3 -4
-8z m60 -13 c6 -4 2 -8 -7 -8 -10 0 -18 7 -18 17 0 9 3 12 8 7 4 -5 12 -12 17
-16z m8 -25 c-7 -2 -19 -2 -25 0 -7 3 -2 5 12 5 14 0 19 -2 13 -5z m193 -75
c-14 -8 -15 -13 -5 -24 9 -11 8 -14 -5 -14 -10 0 -15 4 -12 9 4 5 1 11 -4 13
-6 2 -1 14 12 27 15 17 23 20 26 11 3 -7 -3 -17 -12 -22z m-70 -49 c-15 -9
-16 -13 -5 -20 11 -7 11 -9 -2 -9 -9 0 -19 3 -22 7 -10 9 13 33 32 33 13 -1
13 -2 -3 -11z"/>
<path d="M546 536 c-33 -44 -33 -50 4 -31 21 11 30 23 30 40 0 14 -2 25 -4 25
-2 0 -15 -15 -30 -34z"/>
<path d="M740 700 c0 -13 5 -20 13 -17 6 2 12 10 12 17 0 7 -6 15 -12 18 -8 2
-13 -5 -13 -18z"/>
</g>
</svg>
