<?xml version="1.0" standalone="no"?>
<!DOCTYPE svg PUBLIC "-//W3C//DTD SVG 20010904//EN"
 "http://www.w3.org/TR/2001/REC-SVG-20010904/DTD/svg10.dtd">
<svg version="1.0" xmlns="http://www.w3.org/2000/svg"
 width="128.000000pt" height="128.000000pt" viewBox="0 0 128.000000 128.000000"
 preserveAspectRatio="xMidYMid meet">

<g transform="translate(0.000000,128.000000) scale(0.100000,-0.100000)"
fill="#000000" stroke="none">
<path d="M0 640 l0 -640 640 0 640 0 0 640 0 640 -640 0 -640 0 0 -640z m696
297 c7 -21 9 -35 4 -32 -4 3 -11 19 -15 35 -6 27 -10 30 -46 30 -21 0 -38 -3
-37 -7 5 -24 -25 -64 -59 -78 -34 -15 -40 -14 -70 2 -32 17 -33 17 -57 -6 -24
-23 -24 -25 -10 -61 12 -29 13 -43 5 -58 -9 -17 -8 -21 7 -25 13 -4 11 -5 -5
-6 -13 0 -23 -7 -23 -15 0 -8 -15 -17 -34 -20 -19 -4 -37 -11 -40 -17 -2 -5
-3 -4 -2 3 1 7 17 17 34 22 35 10 41 22 15 29 -15 4 -14 5 3 6 11 0 26 12 33
25 11 19 10 29 -4 56 -17 33 -17 33 14 64 l31 31 33 -18 c30 -16 36 -17 70 -2
20 8 37 19 37 24 0 6 4 22 10 36 9 23 15 26 52 23 38 -3 42 -6 54 -41z m-129
27 c-3 -3 -12 -4 -19 -1 -8 3 -5 6 6 6 11 1 17 -2 13 -5z m303 -74 c6 -11 17
-20 26 -20 12 0 11 -8 -7 -41 -20 -40 -20 -43 -3 -80 13 -31 24 -40 50 -45 22
-4 34 -12 34 -23 0 -11 -3 -12 -8 -4 -4 6 -20 15 -35 18 -19 5 -34 20 -48 48
-20 38 -20 42 -5 74 20 41 20 43 0 43 -8 0 -13 4 -10 9 3 5 -2 15 -11 22 -20
17 -14 17 -47 -4 -24 -16 -32 -17 -57 -6 -16 6 -28 14 -25 16 2 3 14 0 25 -7
16 -8 27 -7 48 4 38 21 60 20 73 -4z m-144 -54 c56 -26 95 -70 114 -130 37
-115 -52 -243 -180 -260 -25 -3 -39 -3 -32 0 6 3 12 13 13 22 0 14 2 13 9 -3
7 -18 9 -17 20 12 12 32 34 48 52 37 5 -3 24 7 41 22 l32 29 -29 -33 c-20 -21
-36 -30 -47 -27 -17 6 -47 -30 -36 -42 18 -18 107 49 133 99 17 34 11 63 -11
54 -8 -3 -15 -1 -15 4 0 6 4 10 9 10 5 0 12 10 14 23 4 19 4 18 6 -5 2 -40 21
-35 21 5 0 47 -40 122 -65 122 -11 0 -26 4 -32 8 -7 5 -19 5 -25 1 -10 -5 -10
-4 -1 6 10 11 15 11 28 0 17 -14 31 -8 20 10 -12 20 -88 50 -125 50 -37 0
-113 -30 -125 -50 -11 -18 3 -24 20 -10 13 11 18 11 28 0 9 -10 9 -11 -1 -6
-7 4 -19 2 -27 -4 -8 -6 -19 -9 -24 -5 -6 3 -17 0 -25 -7 -11 -11 -11 -16 2
-36 8 -12 12 -25 9 -28 -3 -3 -8 4 -12 15 -3 12 -10 21 -15 21 -11 0 -30 -56
-31 -94 -1 -26 -2 -27 -6 -7 -9 44 19 113 62 156 66 67 145 81 231 41z m-73
-13 c-7 -2 -19 -2 -25 0 -7 3 -2 5 12 5 14 0 19 -2 13 -5z m-43 -7 c0 -2 -7
-9 -15 -16 -13 -11 -14 -10 -9 4 5 14 24 23 24 12z m84 -12 c5 -14 4 -15 -9
-4 -17 14 -19 20 -6 20 5 0 12 -7 15 -16z m-99 -46 c-11 -6 -29 -18 -40 -27
-12 -9 -8 -4 7 12 16 15 34 27 41 27 6 0 3 -6 -8 -12z m131 -22 c19 -19 34
-40 34 -47 -1 -8 -8 -1 -16 14 -8 15 -30 37 -47 47 -18 11 -26 20 -18 20 7 0
28 -15 47 -34z m207 -73 c-13 -2 -33 -2 -45 0 -13 2 -3 4 22 4 25 0 35 -2 23
-4z m34 -47 c-3 -7 -18 -16 -34 -19 -22 -4 -34 -16 -48 -48 -17 -36 -17 -43
-5 -53 25 -19 21 -51 -9 -80 -28 -27 -29 -27 -63 -11 -48 23 -96 4 -112 -45
-10 -33 -13 -35 -56 -35 -37 0 -45 3 -48 20 -2 18 -2 18 8 3 7 -11 23 -18 43
-18 28 0 34 4 42 33 7 22 22 38 47 52 35 19 38 19 74 2 37 -18 37 -18 62 6 24
24 24 25 7 55 -17 28 -17 31 0 75 15 40 22 47 51 53 26 5 34 11 35 28 0 11 3
15 6 8 3 -7 3 -19 0 -26z m-642 3 c-4 -5 2 -9 12 -10 11 0 13 -3 5 -6 -16 -6
-44 16 -36 28 3 5 10 7 15 3 5 -3 7 -10 4 -15z m172 -51 c7 -16 11 -28 9 -28
-8 0 -36 58 -35 72 0 9 2 8 6 -2 3 -8 12 -27 20 -42z m96 -23 c20 -9 25 -14
14 -15 -22 0 -87 61 -87 82 0 7 9 -2 20 -20 11 -18 35 -39 53 -47z m158 47
c-15 -27 -60 -62 -80 -62 -9 1 -1 7 17 15 18 8 40 28 50 44 18 33 30 35 13 3z
m-259 -69 c11 -12 26 -19 32 -16 5 4 21 8 33 9 l24 3 -23 -19 -23 -18 25 -10
c48 -18 55 -22 25 -16 -16 3 -44 15 -62 27 -34 23 -83 92 -83 117 1 8 8 -1 16
-20 8 -19 24 -45 36 -57z m-88 33 c16 -42 16 -47 1 -77 -17 -31 -16 -32 10
-55 23 -20 62 -24 51 -5 -2 3 8 7 22 8 37 3 102 -26 102 -46 -1 -14 -2 -14
-10 1 -6 9 -26 22 -44 28 -29 9 -41 8 -66 -5 -29 -15 -33 -15 -49 -1 -10 9
-28 17 -42 17 -17 1 -19 3 -6 6 9 2 15 9 12 13 -3 5 1 24 10 41 14 26 15 36 4
63 -7 17 -19 37 -27 44 -14 11 -14 12 0 12 9 0 22 -18 32 -44z m394 19 c-3 -3
-9 2 -12 12 -6 14 -5 15 5 6 7 -7 10 -15 7 -18z m-525 -12 c-7 -2 -21 -2 -30
0 -10 3 -4 5 12 5 17 0 24 -2 18 -5z m342 -75 c6 -4 2 -8 -7 -8 -10 0 -18 7
-18 17 0 9 3 12 8 7 4 -5 12 -12 17 -16z m-135 -365 c0 -15 -36 -18 -44 -4 -4
5 3 7 14 4 11 -3 20 0 20 6 0 6 -7 11 -15 11 -8 0 -15 7 -15 15 0 12 3 12 20
-2 11 -10 20 -23 20 -30z m30 37 c-13 -8 -12 -10 4 -10 11 0 17 -3 13 -6 -3
-4 -13 -4 -22 0 -18 6 -11 26 8 26 7 0 6 -4 -3 -10z m74 2 c-7 -4 -14 -16 -17
-27 -4 -15 -5 -14 -6 8 -1 20 4 27 17 27 11 0 13 -3 6 -8z m48 -22 c-2 -17 -6
-30 -8 -30 -2 0 -4 14 -4 30 0 17 4 30 8 30 5 0 7 -13 4 -30z m35 -17 c-3 -10
-5 -2 -5 17 0 19 2 27 5 18 2 -10 2 -26 0 -35z m66 28 c3 20 5 18 6 -8 0 -18
-2 -33 -5 -33 -9 0 -43 44 -43 55 -1 6 8 -1 18 -14 l19 -25 5 25z m29 -6 c-3
-18 0 -25 11 -25 8 0 18 6 20 13 3 7 6 5 6 -5 1 -12 -6 -18 -19 -18 -23 0 -35
22 -26 45 9 23 14 18 8 -10z m98 -22 c0 -7 -10 -12 -22 -12 -17 1 -19 2 -5 6
21 5 23 23 2 23 -8 0 -15 7 -15 15 0 12 3 12 20 -2 11 -10 20 -23 20 -30z
m-327 -10 c-7 -2 -19 -2 -25 0 -7 3 -2 5 12 5 14 0 19 -2 13 -5z"/>
<path d="M525 500 c-3 -5 -1 -10 4 -10 6 0 11 5 11 10 0 6 -2 10 -4 10 -3 0
-8 -4 -11 -10z"/>
</g>
</svg>
